<svg id="Layer_1" data-name="Layer 1" xmlns="http://www.w3.org/2000/svg" viewBox="0 0 1047.66 1987.27"><title>codeo</title><path d="M1056.75,583.85c2-15.74,0-26.59-6-32.73a18.7,18.7,0,0,0-10.22-5.19c-0.62-.15-1.25-0.15-1.89-0.32A171.1,171.1,0,0,0,987.21,511a24.3,24.3,0,0,0-3.61-1.57c-15.9-11-31.79-21.4-48-31.15-18.72-11.33-37.91-21.87-57.26-31.77l-2-4.25a5.23,5.23,0,0,1-.64-1.41c-0.47-1.27-1.1-2.53-1.57-3.61q-5.9-16.06-9-22.19a30,30,0,0,0-3.78-6.29,24.39,24.39,0,0,0-.15-3.31,63.86,63.86,0,0,0-1.72-10.06,15.19,15.19,0,0,0-4.25-6.46c0.62-.15,1.09-0.15,1.57-0.32,7.08-2,12.9-7.25,17.45-15.88a33.14,33.14,0,0,0,2.53-5.35,31.27,31.27,0,0,0,2.51-11.65H879c-0.94,1.42-2.83,5-5.81,10.54-3.31,5.5-6.78,9.44-10.24,11.95A64.54,64.54,0,0,1,851,385.48a12,12,0,0,0-6.61-2,82.07,82.07,0,0,0-16.68,2.21c-0.47.15-.94,0.15-1.41,0.3a73.93,73.93,0,0,1-9.45-5.19c-9-5.66-15.56-8.5-20-8.5a33.31,33.31,0,0,0-14.17,3L782.23,374c0.79-20.3.47-33.2-.94-39l-1.57.32c-1.1,3.93-5.82,9.59-13.84,17-6.93,6.31-9.92,11.18-8.82,14.64h-3.78c-6.76-2.06-15.41.94-26.27,9q-13.2,9.66-15.56,18.4c-0.17.47-.32,1.1-0.49,1.72h-0.15a21.86,21.86,0,0,0-1.89-2.68c-2-2.51-4.72-5.34-7.86-8.5-1.1-1.41-7.24-5-18.4-10.84a64.68,64.68,0,0,0-7.71-3.31,15.06,15.06,0,0,1-7.08-7.55,46,46,0,0,0-6.44-9.44c-1.42-1.89-2.68-3.46-3.78-4.72a12.29,12.29,0,0,1-2.53-3.78,33.34,33.34,0,0,1-1.87-5.19c-2.83-11.8-3.61-9.75-2.21,6.14v7.23c0.15,9.29,2.51,19.19,6.93,29.58a87.17,87.17,0,0,0,13.84,22.49c0.47,0.47,1,1.1,1.42,1.57a24.38,24.38,0,0,0,1.41,2.83v1.27l-0.94.62a15.88,15.88,0,0,0-3.78-1.09,35.44,35.44,0,0,0-7.23-.8c-9.92,0-19.19,4.57-27.69,13.85-1.41,1.72-3,3.61-4.72,5.82a77.63,77.63,0,0,0-17.15,12.58Q598,456.5,598,470.89a28,28,0,0,0,.3,7.4,14,14,0,0,0,1,3.61c-3.93,1.89-8.65,4.1-14,6.46-4.25,2.53-9.12,6.61-14.94,12.26q-11.8,11.09-11.8,17.47c-0.15,1.42.47,2.21,1.89,2.21,0.3,0,3.3-3.63,9-10.86a88.9,88.9,0,0,1,13.7-14,13.38,13.38,0,0,0-2.36,4.08,74.69,74.69,0,0,0-5.67,13.22,63,63,0,0,0-12.43,13.69c-1.41,2.06-2.83,4.08-3.93,6-4.4,7.4-6.44,13.54-6,18.72,0.15-5.19,3.31-10.86,9.29-16.66,6.59-6.61,12.88-9.92,19-9.92a17.77,17.77,0,0,1,9.6,2.53l0.62,0.3-0.62.49a1.21,1.21,0,0,0-.79.15c-5.82.49-9.6,3-11.18,7.4-8.18,1.1-16.36,6.44-24.55,15.73A19.6,19.6,0,0,0,552.4,553c-6.29,7.4-9.59,13.84-9.91,19.19a75.36,75.36,0,0,0-10.22,4.72,7.17,7.17,0,0,0-1.1.64,41.2,41.2,0,0,0-9.44,8.33h-0.17a66.24,66.24,0,0,0-6.91,9.44,83.48,83.48,0,0,0-7.24,14.47c2.36-3.3,6.61-6.44,12.43-9.44a43.37,43.37,0,0,1,7.4-3.3c-2.53,2.68-5.82,6.59-9.91,11.48-2.06,2.36-6.78,7.55-14.47,15.58l-1.42,1.41c-0.17,1.1.62,1.74,2,1.74,0.64,0,2-1.1,4.25-3.15,4.87-4.74,13.52-14.47,26-29.11a25.59,25.59,0,0,1,7.4-1.1h0.17c-0.17.64-.32,1.27-0.49,1.89L537.14,600q-13.68,7.08-17.94,12.28a38.2,38.2,0,0,0-6.91,11.8,24.71,24.71,0,0,0-1.57,8.8c-0.17.17-.47,0.32-0.64,0.47a98.72,98.72,0,0,0-8,6.78,10.91,10.91,0,0,0-2.19,2.83,26.39,26.39,0,0,0-20.76,11.33,40.38,40.38,0,0,0-3.78,6.29,17.7,17.7,0,0,0-1.26,3c-1.57,0-3.46,0-5.82.17-2.21-.17-5-1.1-8.65-3.15-0.79-.47-1.72-1.1-2.51-1.57A67.74,67.74,0,0,1,442,651.81c-2.36-1.42-5.82-2.21-10.07-2.21A94.74,94.74,0,0,0,422,651.5c-0.79,0-2.68-1.42-5.82-4.1a16.92,16.92,0,0,0-11.33-4.25c-4.87,0-9.75.32-14.47,0.79-1.57.17-5.19-1.57-10.86-5.19a6.59,6.59,0,0,1-1.41-.79l1.57-2.68c0-3.46-1-5.82-2.68-7.08-1.25-.94-4.1-1.89-8.65-2.68a9.2,9.2,0,0,1-3.78-1.41,21.37,21.37,0,0,1-4.25-3.46c-1.57-1.57-4.08-4.25-7.55-7.86H337a0.34,0.34,0,0,1-.15-0.32c-0.79-1.42-1.27-2.68-1.74-3.46-0.15-.64-0.32-1.25-0.47-1.72a54.22,54.22,0,0,1-.32-18.25,8.17,8.17,0,0,1,.32-2v-0.47c1.42-8,.15-14.64-3.93-19.83q35.64-24.29,38.7-50.18a15,15,0,0,0-1.1-4.72c-2-4.25-6.46-2.53-13.22,5.34l-5.82,14.17-23.27,9a221.45,221.45,0,0,0-48-55.83,3.59,3.59,0,0,1-.79-0.64,10,10,0,0,0-1.57-1.1c-9.12-6.76-16.51-7.55-22-2.36-2.68,2.84-5.35,3.63-8,2.53-15.74-.47-25.48,8.33-29.26,26.1-0.17,1-.47,1.89-0.64,3v0.47a0.61,0.61,0,0,0-.15.47,249.21,249.21,0,0,0-2.21,56.32q-28.31,6.15-39.64,34c-0.17.47-.32,1-0.47,1.42a17.19,17.19,0,0,0-.64,2.83c-1.42,6.61-.79,12.11,2,16.68,6.76,11.16,26.44,15.09,59.15,12.11a3.51,3.51,0,0,1,.79-0.64c0.17,0.15.17,0.47,0.32,0.64h-1.1a10.59,10.59,0,0,0-4.08,5.66,10.35,10.35,0,0,0-.79,3.93c-0.17.64-.47,1.25-0.64,1.72-2.68,6.78-7.7,10.86-15.26,12.43-0.79.17-1.41,0.47-2.19,0.64a13,13,0,0,0-3.31.94q-22.89,8-29.26,35.4a83.78,83.78,0,0,0-2.19,13.22A67.81,67.81,0,0,1,190,697c11.8-8.5,25.18-11.65,40.42-9.44a32.22,32.22,0,0,0-14.77,24.21,10.1,10.1,0,0,1-1.1,1.59,18.62,18.62,0,0,1-7.4,5.66,35.79,35.79,0,0,0-9.12,12c-1.42,3-3.31,7.55-5.67,13.52-4.4,9.6-6.61,17.3-6.61,23,0,0.47.17,1.41,0.32,2.51-1.72,6.76-3.46,14.47-5,22.81-3.93,4.57-5.82,9.14-5.82,13.69,0,6.14.79,11,2.53,14.64a35.25,35.25,0,0,1,2.36,13.84,131.38,131.38,0,0,1-2,20.76,132.8,132.8,0,0,0-2.21,20.93c0,8,.94,14,2.68,17.92,0.64,1.42,2.83,3.78,6.61,6.78,3.78,2.83,6,5.34,6.76,7.55,0.79,2.53,1.57,4.72,2.36,6.76,2,6,3.15,9.29,3.46,9.75,3,5.82,7.4,8.82,13.22,8.82a53.31,53.31,0,0,1,6.44-1c3.15,0,5.82,2,7.86,6a36.15,36.15,0,0,0,10.07,12.1c8.33,5.82,14.94,8.82,20.13,8.82a9.87,9.87,0,0,0,3.46-1.1c2,0.15,4.4.32,7.08,0.32,5.67,0,13.69-1.42,24.08-4.08,1.26-.32,2.51-0.64,3.61-1,1.74,0.64,3.78,1.25,5.82,2,4.4-3.61,7.55-6.44,9.44-8.33a1.47,1.47,0,0,1,.94-0.15c2.36-.17,5.67-0.32,9.92-0.32-0.64,1.72-1.27,3.61-1.89,5.82C316,959.81,315,965,315,969.1c0,5.66,2,13.52,6.29,23.44,3.93,9.59,7.4,15.41,10.22,17.62a158.47,158.47,0,0,0,16.35,11.48,52.21,52.21,0,0,0-.94,9c0,2.68,1.1,9.12,3.15,19.36a31.46,31.46,0,0,1-1.57,9,42.56,42.56,0,0,0-1.25,4.1,57,57,0,0,0-1.89,15.88c0,11.8.79,20.93,2.51,27.22-0.62,1.41-1.41,2.83-2.19,4.57,0,2.36,1.89,6.29,5.5,12.11a5.36,5.36,0,0,0,0,2.19,42.9,42.9,0,0,0,.47,5.5q0,2.13-6.59,10.86c0,1.1.94,2.36,2.81,3.46a8.78,8.78,0,0,1,4.27,5.5c-0.49,1.72-2.84,5-6.93,10.07-0.79,1.1-1.57,2.19-2.53,3.61-6.44,9-17.45,23.27-33.18,43.25-1.1,1.27-2.06,2.53-3.15,3.93a256.39,256.39,0,0,0-16.83,24.55q-4.49,7.3-4.25,22.65c-20.93,27.37-34.3,52.24-40.42,74.57q-63.5-34.94-122.56,17.92a9,9,0,0,0-1.41,1.1,13.73,13.73,0,0,0-3.61,3c-1.1.79-2.21,1.72-3.63,2.83-4.55,2.68-7.4,4.72-8.65,6.14q-46,31.62-46.25,72.83c-1,1.1-1.89,2.19-3,3.61-4.4,5.82-7.55,10.69-9.27,14.94-3.46,7.71-5.2,16.51-5.2,26.59,0,7.24.32,12.9,1.1,16.83,0.17,0.79.32,1.57,0.47,2.21,1.42,4.87,4.57,11.8,9.75,20.45,1.1,1.72,2.21,3.46,3.61,5.5l1.42,3.3c2.36,33.35-12.9,62.78-45.46,88.09,12.11-6.29,22-13.52,30-21.85a115.43,115.43,0,0,0,4.08,31.14,103.27,103.27,0,0,0-4.25,17,70.18,70.18,0,0,0-.94,10.84A82.15,82.15,0,0,0,43.66,1677a56.37,56.37,0,0,0,4.89,13.07c2.68,5.82,5.19,8.65,7.4,8.65,1.72,0,2.66-.79,2.66-2.53-2-4.08-4.23-8.5-6.27-13.05A66,66,0,0,1,46,1655.43a55.05,55.05,0,0,1,1.09-10.84c0.49-2.68,1.1-5.67,1.89-8.67a85.86,85.86,0,0,0,3.93,8.67,92.86,92.86,0,0,0,16.36,23q-2.84,15.33-6.61,32.09c3.78-9.59,7.08-19,10.07-28.63A114.3,114.3,0,0,0,88,1682.81,143.76,143.76,0,0,1,74.34,1666c2-7.08,3.76-14.31,5.5-21.38,0.47-2.06.79-3.95,1.25-5.82a32.09,32.09,0,0,0,.94,5.82c0.17,1.09.49,2,.64,2.83,1.72,6.44,5.35,14.62,11,24.55a91.32,91.32,0,0,1,6.29,13.37,185.55,185.55,0,0,1-7.08,67.95,180.9,180.9,0,0,0,13.69-39.8c1.1,4.1,1.89,6.14,2.53,6.14,1.72,0,2.51-1.25,2.51-3.93a71.14,71.14,0,0,0-2.51-18.4,119.34,119.34,0,0,0-1.42-35.24q19.12,24.77,13.22,70.79c7.4-26.9,9.27-52.86,5.82-77.55,10.22,27.69,25.48,47.5,45.78,59.62l-4.1,53.81a163.7,163.7,0,0,0-12.11,21.7q-14.38,30.92-16,68.9c-0.3,1.27-.62,2.51-0.94,3.93a450.84,450.84,0,0,1-59.78,137.48,9.94,9.94,0,0,0-1.42,1.1C60.66,2014.11,53.9,2025,58,2034.56c-7.86,6.29-14.32,14.94-19.34,25.8a11.31,11.31,0,0,0,.47,10.54,23.77,23.77,0,0,0,3.3,3.61,18.67,18.67,0,0,0,4.42,3.3,36.66,36.66,0,0,0,4.55,1.74l4.72,0.94a24.84,24.84,0,0,1,4.72,1c1.57,0,3.15.15,4.72,0.3a99.75,99.75,0,0,0,27.22-2.36,44.84,44.84,0,0,0,14-4.72,19,19,0,0,0,4.55-3.46,24.71,24.71,0,0,0,6.29-10.52l1-3.31a46.07,46.07,0,0,0,.47-16.2l4.72-4.1q22.89-91.3,78.34-173.36,40.13-38.45,34.92-72.2a3.2,3.2,0,0,1-.15-1.1l-1-4.25V1786c-0.15-3.93-.3-7.71-0.15-11.48a69.79,69.79,0,0,0,8.65,6.91,72.17,72.17,0,0,0,17.15,9c1.42,0.47,3,.79,4.57,1.25a89.68,89.68,0,0,0,12.42,7.56,22,22,0,0,1,2.21,1.72,43,43,0,0,1,10.39,12.75c-0.79.94-1.57,1.72-2.06,2.36-7.08,9-10.54,17.13-10.54,24.53-0.15,1.74.79,2.53,2.53,2.53,0.64,0,2.21-3.31,4.72-10.07,2.83-7.7,5.19-12.43,6.91-14.47l0.33-.32c4.55,13.85-.49,30.69-15,50.5a137.87,137.87,0,0,0,19-16.51c-0.15,1.25-.32,2.68-0.47,4.1,0.62,18.09,3.61,27.06,9,27.06,1.57,0,2.36-.79,2.36-2.53a47.44,47.44,0,0,1-6.29-24.53,49.67,49.67,0,0,1,1.72-11.81v-0.15c0.15-.17.47-0.47,0.64-0.64,18.09-8.17,29.56-20.91,34.45-38.38a28.64,28.64,0,0,0,.79-3.3,103.65,103.65,0,0,0,1.56-11.65,117.91,117.91,0,0,0-1.09-30.84,51.2,51.2,0,0,0,3-17.13v-7.56c-0.15-.47-0.62-1.89-1.41-4.4a162.23,162.23,0,0,0,14.16,8.8c0.47,6.78.47,14,.32,21.87a165.53,165.53,0,0,0,2.68-20.13,162,162,0,0,0,26.42,10.54,167.45,167.45,0,0,1-26-16.51v-1.42a7,7,0,0,0,0-2.51,2.9,2.9,0,0,1-.17-1.1c-0.79-23.76-8.8-43.74-24.06-60.1a14.75,14.75,0,0,0-.79-2.83c-2.53-5-7.08-11-13.54-18.09a57.34,57.34,0,0,0-4.4-4.4,34.45,34.45,0,0,1-2.51-2.38c26.74-26,46.56-57.57,59.62-95.17,1.25-3.61,2.53-7.23,3.61-10.84,6.61-16.21,13.54-28.8,20.61-37.45,13.05-15.9,26.74-19.51,41.21-10.54l1.1-1.41a80.29,80.29,0,0,1,15.26,11.95c23.76,24.85,16.66,59.93-20.91,105.39a19.43,19.43,0,0,0-1.57,2.06L392.9,1654q-34.71,32.8,1.09,91.87c0.64,1.09,1.25,2.19,1.89,3.3,8.18,13.37,15.9,27.21,23.12,41.21a679.68,679.68,0,0,1,54.6,143.47c4.4,34.13,15.09,49.39,32.09,46.08a142.8,142.8,0,0,0,18.4,31.15,15.86,15.86,0,0,1,1.41,1.74c33.51,12.88,66.86,14.16,99.74,3.61l1.1-.32q17.22-6.12,11.33-18.4c-1.42-2.21-3-4.42-4.4-6.46a190.61,190.61,0,0,0-27.86-30.2q-17.22-26-56.62-51.28c-0.64-.47-1.25-0.79-1.89-1.25q-54.74-66.31-69.37-118.14c-3.63-12.9-5.5-25.16-5.35-36.66l3.46-37.11v-0.49l0.17-.94a15.09,15.09,0,0,1,.15-2.68c2.83-21.87,20.91-42.31,54.43-61.66l5.35-2.53a450.82,450.82,0,0,0,58.66-34.77c1.1-.79,2.06-1.57,3.15-2.36q56.87-51.42,62.29-112.47a158.12,158.12,0,0,0-5-53.64c12.73-6.29,25.32-13.05,38.06-20.13,1.89-1.1,3.78-2.21,5.82-3.31q75.74-60.41,96.89-140.48l11,21.25c4.08,37.6-1.74,66.22-17.64,85.57a54,54,0,0,0-4.87,5.35c-10.54,12.9-11,24.55-1.42,35.07q-18.87,2.86-33,10.39c-14.62,11.8-22.34,27.06-22.81,45.46a73.78,73.78,0,0,0,2,14.47,23.78,23.78,0,0,0,.79,3.31,55.63,55.63,0,0,0,7.23,15.09,45.53,45.53,0,0,0,9.45,9.6,36.76,36.76,0,0,0,19.51,8.48c1.72,0.17,3.61.17,5.5,0.32a32,32,0,0,0,5.19-1.42,24,24,0,0,0,5-3.15c1.41-1.41,2.83-2.66,4.23-3.93s2.68-2.83,4.1-4.25a45.69,45.69,0,0,0,3.93-3.92,119.43,119.43,0,0,0,15.41-20.15c1.89-3.15,3.63-6.29,5.2-9.59a34.38,34.38,0,0,0,3.3-8.18,1.92,1.92,0,0,0,.17-1,11.12,11.12,0,0,0,.47-2.83,29.38,29.38,0,0,1,2-8.18,26.29,26.29,0,0,1,5-5.19,7.24,7.24,0,0,1,1.72-1.25,3,3,0,0,1,.79-0.47c8.65-4.57,14.94-12,18.57-21.87q19.1,27.61,54.26,27.36c25-22.32,37.76-46.71,38.38-73q37.77-28.79,38.08-86.67c4.23-27.22,12.26-49.56,23.74-67.18,0.17-.17.32-0.47,0.49-0.64,0.47-.62.79-1.26,1.25-1.87a200.32,200.32,0,0,0,18.24-31q20.78-45.75-4.55-75.66c-9.44-18.09-28.95-20.3-58.68-6.29A38,38,0,0,0,954,1127q-47,15.79-34.45-49.73c0.15-.79.32-1.41,0.47-2q8.73-82.57-54.26-145.35a69.11,69.11,0,0,1-15.9-14.32c-10.54-12.73-17.15-29.56-19.66-50.5a625.71,625.71,0,0,0-7.08-95.17c-0.64-3.93-1.25-7.86-1.89-11.65A567.59,567.59,0,0,0,915.78,697,522.81,522.81,0,0,0,965,651.5c23.76,11,47.67,13.37,71.43,7.08,15.41-11.33,19.51-18.57,12.42-21.87a12,12,0,0,0,7.09-2.36c1.72-2,3-5.35,3.45-10.22,1.1-8.82.17-22.19-2.66-40.27M531,943.62l-2.53,9c-24.38,4.55-49.07,20.76-74.26,48.92,0.17-1,.49-1.89.64-2.84,0.47-1.09.94-2.19,1.42-3.61,3.93-10.69,8-19.19,12.58-25.48a48.5,48.5,0,0,1,7.86-8.5q21-16.74,54.28-17.45m-180,65.12c-16.21-9-24.23-21.4-24.23-37.43,0-7.08.32-11.81,0.94-14,1.42-3.93,2.53-7.24,3.61-9.75h0.17a8.47,8.47,0,0,1,4.25,1.89c1.41,1.25,2.19,1.87,2.51,1.87,0.47-.15.79-0.47,1.25-0.62,0.79,0.62,1.74,1.26,2.53,1.89,10.69,7.86,16,15.88,16,23.91,0,5.5-1.89,14.47-5.5,26.59-0.64,2-1.1,3.93-1.57,5.66m-127,322.34a128.51,128.51,0,0,0-74.87,6.91c25-16,49.86-18.4,74.87-6.91m5.2,40.11q-7.08,44.6-36.19,87.31-16.74-76.2,36.19-87.31M101.4,1379c-1.72,2.21-3.93,5-6.61,8.35-0.47.62-1.57,2.68-3.61,6.12A278,278,0,0,0,75,1417.11a131.37,131.37,0,0,1,5-12.42c3.93-7.08,11-15.73,21.4-25.65M82,1391c-2.83,3.61-5.19,6.91-7.23,9.91-0.94,1.42-3.15,6.93-6.76,16.51,1.89-9,6.61-17.77,14-26.42M48.23,1500.33c-0.15-.47-0.15-1.1-0.32-1.57a79.88,79.88,0,0,1-1.41-17q0-13.93,4.72-24.55c1.25-3,3.93-7.08,8-11.95a5.14,5.14,0,0,0,.17,1.57q-11.57,27.61-9.92,51.9c0.17,2.21.32,4.4,0.64,6.76a51.85,51.85,0,0,1-1.89-5.19m11.18,70a89.84,89.84,0,0,0,6-27.06l4.25,5.66q-0.25,21.48-14.15,54.28c-0.64,1.57-1.27,3.15-1.89,4.72a105.89,105.89,0,0,1,5.82-37.6m11.16,90a130.47,130.47,0,0,1-8.48-15.73,97.49,97.49,0,0,1-7.56-26c1.72-4.57,3.63-9.45,5.82-14.64,8.33-19.36,13.05-35.87,14.15-49.39,3.78,24.7,3.31,54.58-1.57,90-0.79,5.19-1.57,10.37-2.36,15.73M88,1644.59a80.74,80.74,0,0,1-2.51-20.15,69.5,69.5,0,0,1,.62-9.29,141.87,141.87,0,0,0,2.68,24.23c0.32,1.74.62,3.46,1.1,5.2,0.47,2,.94,3.93,1.41,6a175.33,175.33,0,0,0,5.82,18.25A104.26,104.26,0,0,1,88,1644.59m5.35-4.1c-0.49-2.36-1.1-5.34-1.59-9.29l-0.47-6.29v-7.06c0.47-10.86.79-19,1-24.39a9.76,9.76,0,0,1,.62-1.25v39.32c0.17,2.36.32,5.35,0.49,9m79,64.5c-15.41-11.49-28.63-28.31-39.79-50.18a121.91,121.91,0,0,0,39.79,35.07v11.81l1,3.3-0.17.47a4.05,4.05,0,0,1-.79-0.47m69.39,67.33a29.65,29.65,0,0,1-5.35-6.29c0.3-2.53.62-5,1.09-7.4a114.12,114.12,0,0,0,19.83,25.8,37.43,37.43,0,0,1-15.56-12.11m-0.64-28.48a131.06,131.06,0,0,1,4.57-12.58c5.34,20.91,16.66,39.64,34.13,55.85-1.1.15-2.36,0.15-3.63,0.3-14.94-10.52-26.57-25-35.07-43.57m42,48c0.47-.17,1.1-0.17,1.57-0.32,1.42,1.25,3,2.51,4.4,3.61-2-1.1-4.08-2.21-6-3.3m29.73,38.7-1.72-.64A74.49,74.49,0,0,0,313,1822c7.7-5.82,12.26-16.36,13.52-31.62,0.15-2.68.32-5.5,0.32-8.33,1.72-2.21,3.15-4.25,4.55-6.29a125.88,125.88,0,0,1,1.42,14.62c0.15,18.72-6.61,32.09-20,40.12m10.39-84.8a185.5,185.5,0,0,1,6.91,23.59c-1.09,1.74-2.19,3.46-3.46,5.2a239,239,0,0,0-3.45-28.8m14.15-35.55a121.53,121.53,0,0,0,1.25-13.05c0-.79-0.15-2.36-0.32-4.72,8.35,8.33,13.69,21.07,16.21,38.53a0.32,0.32,0,0,0-.17.32,86.48,86.48,0,0,1-17.15-19.81,3.38,3.38,0,0,0,.17-1.27M332.8,1688a82.38,82.38,0,0,1,.94,9,67.56,67.56,0,0,1-.47,6.93,57.5,57.5,0,0,1-4.87-18.4c1.42,0.79,3,1.57,4.4,2.53m0.47,36.17a40.63,40.63,0,0,1,4.42,17.94c0,2.36-.17,4.57-0.32,6.93a120.4,120.4,0,0,0-22.65-43.27,157.85,157.85,0,0,0,18.56,18.4m-10.69-65.44A134.08,134.08,0,0,0,307,1648.36l2.21-2.19a62.37,62.37,0,0,1,13.37,12.58m-218,13.05-0.64-.79c-1.09-2.36-2.19-4.72-3-6.93a3.15,3.15,0,0,0,.15-1.25c-2-7.86-3.15-12.41-3.3-13.69s-0.17-3-.32-4.55c-0.17-3-.32-6.14-0.32-9.44-0.15-18.4-.15-27.86-0.15-28v-9q0.93,13,1.41,33.51c0.17,4.55.47,8.8,1,12.9a147.42,147.42,0,0,0,5.19,27.21M57.66,1509.45a71.17,71.17,0,0,0,0,8c-0.94-3.3-1.57-8.65-1.72-16v-2.68L55.77,1484c0-8.35,1.42-18.1,4.42-29.28v2.84a128.33,128.33,0,0,0-2.38,17c-0.79,8-1.09,16-1.09,24.23v1.74a70.85,70.85,0,0,0,.94,9M947.41,1203l3.78,4.25,1.89,2.06c0.15,0.62.15,1.26,0.32,2q2.58,32.33-21.72,77.87c-1.72,2-3.3,3.93-4.87,6-18.72,23.12-27.54,41.68-26.27,55.53a4.58,4.58,0,0,0,.15,1.42,31.71,31.71,0,0,1-2.21,14.62q-38.7,3.76-52.37,45a276.64,276.64,0,0,1,9.74-93.45c0.17-.32.17-0.64,0.32-0.94,19.36-18.1,24.86-36,16.83-54.13q25.25,6.15,71.26-56c1.1-1.41,2.06-2.83,3.15-4.25M622.73,489.32a15.26,15.26,0,0,1-5,2.36,46.21,46.21,0,0,0-8.82,1.87c-1.41.32-4.25,2-8.8,5a21.35,21.35,0,0,0-3.46,2.51,23.35,23.35,0,0,0-2.68.64c0.64-.64,1.27-1.1,1.74-1.57A40.46,40.46,0,0,1,610.61,492a113,113,0,0,0,14.62-4.72c-0.79.62-1.57,1.25-2.51,2.06m0.62,3.15a0.62,0.62,0,0,0-.32.3c-1.72.64-4.23,1.74-7.55,3.15-1.1,0-2.51.64-4.4,1.89l-0.32.32-6.44,1.25a22.88,22.88,0,0,1,8-3.78,60.87,60.87,0,0,0,11-3.13m-9.44-14.17c0.64-.47,1.25-0.79,1.74-1.1,1.72-1.1,3.46-2,4.87-3a15.22,15.22,0,0,1-2.83,3.61l-0.94.47c-0.49.17-1.1,0.32-1.59,0.47a38.93,38.93,0,0,1-5,1.42,41.56,41.56,0,0,1,3.76-1.89m1.74,9.44a9.65,9.65,0,0,1-1.89-.94c4.57-1.25,7.86-2.21,9.75-2.83,1.41-.49,2.68-1,3.76-1.42a12.18,12.18,0,0,0-1.87,1.1,40.63,40.63,0,0,1-9.75,4.08m216.93-77.07c11.48,0.94,19.51,3.93,24.23,9.12,4.25,4.55,9.59,12.41,16.2,23.91v0.15c-8.33-4.25-16.66-8.16-25-12a33.2,33.2,0,0,0-5.66-3.76c-0.49-.15-3-1.57-7.56-4.25a178.3,178.3,0,0,0-16.35-8.48c-5.82-3.15-9.14-6-9.92-8.5a2.29,2.29,0,0,1,0-1.42,1.11,1.11,0,0,1,.17-0.79c0.3,0.15.62,0.47,1.09,0.79,3.95,2.51,11.65,4.25,22.82,5.2m1.72-23a37.15,37.15,0,0,1,10.07-1.1,5.31,5.31,0,0,1,2.53.64,32.84,32.84,0,0,1-10.71,1.87,16.78,16.78,0,0,1-4.4-.79c0.79-.15,1.72-0.47,2.51-0.62m5.19,6c4.89-1.25,9-2.36,12.11-3.46,3,2.53,4.89,4.87,5.35,7.24a42.27,42.27,0,0,1,1.1,7.38,38.66,38.66,0,0,0-5-3.76c-5.5-3-13.37-4.72-23.44-4.87a74,74,0,0,1,9.91-2.53m-28.16,4.57c-2,0-7.23.94-15.41,2.66a6.24,6.24,0,0,1-2.36-.47c0.17-2.51,2.53-4.08,6.93-4.57a25.39,25.39,0,0,1,3.46-.15,12.36,12.36,0,0,1,4.25.49,8.42,8.42,0,0,1,4.23,1.41Zm-25-18.25a42.07,42.07,0,0,1,10.69-1.1c5.82,0,10.07,2,12.73,6.29q-6.35-3.29-15.56-3.3a35.77,35.77,0,0,0-15.9,3.61c3.31-3.31,6-5,8-5.5m7.86,5c6.29,0,11.16,1.1,14.62,3.15a5,5,0,0,1-3.15.94c-2.83,0-5.34-.15-7.7-0.3l-0.17-.17a44.32,44.32,0,0,0-8.33-1.26,41.25,41.25,0,0,0-9.14,1.42,19.23,19.23,0,0,0-3.61,1.09c4.72-3.3,10.54-4.87,17.47-4.87m-46.1-1c1.25-2.68,2.36-4.87,3.31-6.61l0.15,1.42c0,2.51-2.68,8.82-8,19a102.6,102.6,0,0,1,4.57-13.85m-0.32-8c-1.41,3.15-3,7.23-4.87,12.43a57,57,0,0,0-3,11A31.2,31.2,0,0,1,747.78,376m-27.37,28a25.43,25.43,0,0,1,5.82-15.88c3.31-4.4,6.93-7.25,10.69-8.35-7.08,9-11.31,17.17-12.73,24.71a2.08,2.08,0,0,1-.15.94,36.33,36.33,0,0,0-.32,4.25,18.67,18.67,0,0,0,.94,4.4,7.82,7.82,0,0,1,.47,2.53h-0.32l-1.09-.17c-2-1.72-3.15-5.5-3.31-11V404Zm-71.88,74.26a45.39,45.39,0,0,1-2.21,7.08H643v-8.8A29.94,29.94,0,0,1,645.68,466c2.21,3.15,3.31,5.66,3.31,7.7a26.1,26.1,0,0,1-.47,4.57m-2.84-31.46c-1.87,2.68-5.5,6.76-10.69,12.58-4.57,4.89-7.08,9.29-7.71,13.22l-0.3-2.36a18.35,18.35,0,0,1,.3-3,17.28,17.28,0,0,1,1-3.76,26.56,26.56,0,0,1,5.35-8.67,27.73,27.73,0,0,1,8.65-6.44c1.25-.64,2.36-1.1,3.45-1.57M602,471.06c0-11.18,7.23-21.87,21.87-31.94a182.48,182.48,0,0,0-9.75,16.51v0.64h0.47Q616.2,452,623,445.41c4.89-4.87,9.29-8.17,12.92-9.91v-0.17c4.23-1.72,5.19-1.72,2.83,0a58.49,58.49,0,0,0-4.89,4.42c-0.15.15-.3,0.32-0.47,0.47l-0.15.15a30.58,30.58,0,0,0-2.21,2.21c-0.79.64-1.72,1.42-2.68,2.21A24,24,0,0,0,621.77,455l-0.62,13.22c-2,3-5.82,6-11.33,8.63-0.79.49-1.74,1-2.68,1.42a34.81,34.81,0,0,0-3.31,1.57,6.82,6.82,0,0,1-.62-1.57,20.49,20.49,0,0,1-1.25-7.23m-12.58,29.41a36.22,36.22,0,0,1,5.5-5.82,23.14,23.14,0,0,1,10.69-5c0.47-.17.79-0.17,1.1-0.3,0.3,0.13.62,0.13,0.94,0.3-2.83.49-7.4,3.15-13.69,7.86-2,1.74-3.76,3.15-5.19,4.4,0.15-.47.47-0.94,0.64-1.41M590.47,512c-1.41.32-4.23,1.72-8.5,4.25-0.15.15-.3,0.15-0.45,0.32a26.1,26.1,0,0,1,13.37-8.65c6.91-1.42,11.63-2.36,14.15-3.15,2.36-.32,4.57-0.64,6.44-1a53.44,53.44,0,0,0,7.4-1.72,22.1,22.1,0,0,0,4.25-1.1,38.81,38.81,0,0,1-16,6.61,153.64,153.64,0,0,0-20.61,4.4m0.32,3.3a15.78,15.78,0,0,1,2.68-1.09c9.91-1.89,17.15-3.31,21.55-4.1-1.57.47-3.3,1-5,1.42-3.61.79-8.8,1.89-15.73,3a25.65,25.65,0,0,0-3.46.79m7.08,16.06a2.63,2.63,0,0,1,1,.94h0.62v1.25a5.39,5.39,0,0,1-.32,1c-4.23,2.66-7.55,3.93-10.06,3.93a2.31,2.31,0,0,1-1.74-.79c4.42-4.25,7.88-6.29,10.54-6.29M579.46,550V549.4c1-1.42,1.74-2.21,2.36-2.21,2.36,0,3.63.49,3.63,1.42a6.25,6.25,0,0,1-1,2.51c-0.32.47-.62,1.1-1.1,1.74a12.06,12.06,0,0,1-1.87,2.51,5.24,5.24,0,0,0-1.27.79h-2.68a1.66,1.66,0,0,1-.62-1.57v-0.15a23.75,23.75,0,0,1,1.41-2.84l0.32-.47ZM520.31,655.11l-4.55-1.89a10.4,10.4,0,0,1-2.38-1.41c0.49-1.59,1-3.16,1.27-4.74a3.25,3.25,0,0,1,1.25.17,16.58,16.58,0,0,0,.64,1.72c1.41,2.36,2.66,4.42,3.76,6.14m-1.25-12.28c0.15,0.49.47,1,.62,1.42-0.15-.15-0.15-0.15-0.3,0-0.17-.47-0.17-0.94-0.32-1.42m14.32,12.43a1.66,1.66,0,0,0,1.87-1.87c-0.15-.17-0.15-0.49-0.3-0.64V652.6l-0.17-.32c-0.15-.47-0.32-0.79-0.47-1.27a22.13,22.13,0,0,0,7.08-1.09v0.3c0,2.06-.94,3.78-3,5.52-2.83.3-5.34,0.62-7.55,0.79-0.32-.49-0.62-0.79-0.94-1.27a45.62,45.62,0,0,1-3.31-5.19c0.47,0.15.94,0.15,1.42,0.32,2,3.3,3.78,4.87,5.35,4.87m-3.31-13.37v-0.15l0.17-.17a0.32,0.32,0,0,0-.17.32m6.93-5.5a4.31,4.31,0,0,1,3.15,1.74,57.17,57.17,0,0,1,1.1,7.85,32.86,32.86,0,0,1-8,1.57,22.34,22.34,0,0,1-.32-3c0-5.5,1.42-8.18,4.1-8.18m-9.92,20.45c-0.15-.15-0.32-0.15-0.32,0a2,2,0,0,0-.94-0.15l-1.25-1.57a30.53,30.53,0,0,1-3.93-7.08c0.32,0.15.62,0.15,1.1,0.32a32,32,0,0,0,3.46,5c0.62,1.09,1.26,2.36,1.87,3.45m-2.83-11.48h-0.15c-2.36-5-3.63-9.6-3.63-13.69v-0.15A25.25,25.25,0,0,0,523.62,642c0.62,1.42,1.25,2.84,1.87,3.93-0.47-.15-0.79-0.47-1.25-0.62m23-9.44-1.42-.79c-2.68-3.78-4.4-5.67-5.19-5.5a9.74,9.74,0,0,1-3.46-.32v-1.42a9.51,9.51,0,0,1,.64-3.76c1.1-3,3.61-4.4,7.55-4.1l0.94,1.26a20.12,20.12,0,0,1-.15,2.84c-0.15.47-.15,1.09-0.32,1.72,0,1.1.64,3.61,1.89,7.55a7.83,7.83,0,0,1-.47,2.53M565,574.73a15.3,15.3,0,0,0,1.89-1.74,20.85,20.85,0,0,1-6.76,6.61l-5.19,2.83-5.2,1.42a1.23,1.23,0,0,0-.79.15,39.65,39.65,0,0,1,1.25-3.93,0.34,0.34,0,0,1,.32-0.15c8-2.36,12.75-4.1,14.47-5.19m-13.22,1.57a9.06,9.06,0,0,1,.79-2.06c5.84-1.57,9.92-2.83,12.6-3.61a14.79,14.79,0,0,1-3.15,2c-4.4,1.74-7.88,2.84-10.24,3.63m-3.15-8.5a88.1,88.1,0,0,1,6.46-12.58,17.25,17.25,0,0,1,3.78-4.1,86.55,86.55,0,0,1,7.4-5.81c2.34-1.1,4.55-2.06,6.59-2.84a13.14,13.14,0,0,0-1.25,1.41l-0.62.65a6.58,6.58,0,0,0-.79,1.57,16.53,16.53,0,0,0-9.45,5h7.86a61.59,61.59,0,0,0,.79,7.24,4.63,4.63,0,0,1-1.87,3.61,62,62,0,0,1-9.91,4.4,7.74,7.74,0,0,0-2.06.79,40.91,40.91,0,0,1,2.53-5.19,30.86,30.86,0,0,1,5.66-7.55,32.65,32.65,0,0,1,4.72-3.31h-7.71c-3.92,3.93-7.7,9.92-11.16,18.25a8,8,0,0,0-2,.79,14.83,14.83,0,0,1,1.09-2.36m-14.16,12.73A42.93,42.93,0,0,1,545.64,576c0.47-.17.94-0.17,1.41-0.32-0.15.47-.47,1.1-0.62,1.72a92.83,92.83,0,0,0-13.84,4.89c-1.1.47-2.21,0.94-3.16,1.42a55.44,55.44,0,0,1,5-3.16m-3.45,6a17.83,17.83,0,0,0,2.36-1.42c0.3-.17,4.23-1.41,11.63-3.61-0.32,1.09-.62,2-0.94,3.15-5.5.62-9.75,1.25-13.05,1.89m9.59,23c2.36-1.41,4.57-2.68,6.61-3.93-3.46,2.83-5.35,4.4-5.67,4.57a51.38,51.38,0,0,0-11.95,10.69c2-4.55,5.66-8.33,11-11.33m-9.75,14.64c2.53-3.95,6.29-7.4,11.33-10.54a90.56,90.56,0,0,0,12.9-9.44,0.3,0.3,0,0,0-.15.3,72.59,72.59,0,0,1-11,9.45c-1.09.62-2.19,1.25-3.45,1.87l-3.31,2.84a37,37,0,0,0-6.29,5.5l-0.32.3a0.29,0.29,0,0,0,.17-0.3h0.15Zm-14,39.32c2.36,1.42,4.57,2.68,6.46,3.61a66.72,66.72,0,0,0,6.44,3.78v1.25a21.13,21.13,0,0,0-6-4.08c-5.82-2.83-10.86-5.2-14.79-6.93,0.17-.15.17-0.32,0.32-0.47,0.17-.32.32-0.64,0.47-1l1.89,1a41.72,41.72,0,0,1,5.19,2.83m-10.06.79a95.26,95.26,0,0,0,12.73,5.82c4.89,1.72,8.18,4.1,9.59,7.08a0.3,0.3,0,0,0-.3.15,22.87,22.87,0,0,0-12.26-5.5c-3.95-.3-9.14-0.3-15.74-0.15,1.25-1.72,2.68-3.46,4.1-5.19,0.62-.79,1.25-1.42,1.89-2.21m-0.49-23c1.74-1.56,3.31-2.83,4.72-3.92a0.86,0.86,0,0,1,.17.62,20.59,20.59,0,0,1,.32,5.35c-2-.17-4.1-0.17-6.29-0.32,0.47-.79.94-1.42,1.09-1.74M501,649a21.05,21.05,0,0,0,1.72-2.36c3,0,5.82.15,8.18,0.32a11.84,11.84,0,0,1-.94,3.15,35.56,35.56,0,0,0-7.71-.79,3.59,3.59,0,0,0-1.25.15V649Zm4.55,9.14c-0.15.3-.47,0.62-0.79,1.09-2-.94-3.61-1.72-5-2.36a21.94,21.94,0,0,1,5.82,1.27m-25.48.62c4.42-7.08,10.39-11,17.94-12a23.3,23.3,0,0,0-1.1,3.46,19.1,19.1,0,0,0-5.82,3q-4.72,3.54-4.72,5.66a1.31,1.31,0,0,0,.79,1.57v0.17a1.52,1.52,0,0,0,1.57.62,2.5,2.5,0,0,0,.79-0.3c0.17-.17.32-0.17,0.49-0.32s0.3-.47.47-0.64a11.94,11.94,0,0,1,4.72-.94,4.54,4.54,0,0,0-.17,1.57v0.47c-0.3,1.57.32,2.36,1.74,2.36,0.15,0,.47-0.94,1.1-2.83,0.15-.47.3-1.1,0.47-1.57,0.94,0.47,1.72,1.1,2.51,1.57s1.42,0.79,1.89,1.1a3.68,3.68,0,0,0-.64.79,54.07,54.07,0,0,0-6.59,9,8.42,8.42,0,0,1-2.68-1.89c-0.64-.79-1.89-2.21-3.61-4.25-1.57-1.42-4.89-2-9.92-2a5.33,5.33,0,0,0-1.25.15c0.47-1.1.79-2,1.1-2.83a11.65,11.65,0,0,1,.94-1.89M892,697a646.93,646.93,0,0,1-74.72,40.74c-0.79-3.93-1.72-7.71-2.53-11.65a480.71,480.71,0,0,0,54-29.1,516.29,516.29,0,0,0,68.58-51.6c0.17-.17.49-0.47,0.79-0.79l2.38-.17,1.72,0.32,0.15,0.17h1c1.57,0.15,3.93.3,6.93,0.79,0.47,0.15,2.51.62,6.44,1.57,0.47,0.3.79,0.62,1.25,0.94A602.89,602.89,0,0,1,892,697m27.84-50.81A499.07,499.07,0,0,1,832.58,697q-11.09,4.94-22.65,9.91c-1-3.3-1.89-6.61-2.83-9.91-3.63-12.28-7.55-24.39-12-36.34a15.47,15.47,0,0,0-.62-1.57,11.64,11.64,0,0,1-.79-2.21l-0.32-.3a21.2,21.2,0,0,1-1.1-6.14,4.15,4.15,0,0,1,.17-1.42q0.7-3.06,5.19-5.66a144.16,144.16,0,0,0,42.78-19.19,20.89,20.89,0,0,1,3-2.06,2.87,2.87,0,0,0,.32-0.32l3.31,2.38c20.6,14.31,45,21.55,72.83,22" transform="translate(-12.2 -94.61)"/><polygon points="830.12 333.5 863.74 0 764.52 295.26 830.12 333.5"/></svg>